<?xml version="1.0" standalone="no"?>
<!DOCTYPE svg PUBLIC "-//W3C//DTD SVG 20010904//EN"
 "http://www.w3.org/TR/2001/REC-SVG-20010904/DTD/svg10.dtd">
<svg version="1.0" xmlns="http://www.w3.org/2000/svg"
 width="460.000000pt" height="460.000000pt" viewBox="0 0 460.000000 460.000000"
 preserveAspectRatio="xMidYMid meet">
<metadata>
Created by potrace 1.11, written by Peter Selinger 2001-2013
</metadata>
<g transform="translate(0.000000,460.000000) scale(0.100000,-0.100000)"
fill="#000000" stroke="none">
<path d="M1978 4194 c-7 -9 -22 -26 -33 -37 -22 -23 -50 -77 -47 -89 1 -5 -3
-8 -9 -8 -7 0 -22 -12 -35 -27 -13 -16 -24 -23 -24 -18 0 6 -9 -3 -21 -20 -16
-24 -19 -26 -14 -7 9 32 -11 27 -31 -8 -10 -16 -24 -32 -31 -34 -18 -7 -16 0
9 34 40 54 11 42 -33 -14 -46 -58 -65 -70 -56 -35 11 43 -25 71 -38 29 -3 -11
-15 -20 -25 -20 -12 0 -20 -8 -22 -22 -2 -13 -7 -22 -11 -20 -5 2 -15 -5 -22
-14 -11 -16 -12 -15 -12 9 0 14 6 28 13 31 23 9 16 21 -12 23 -19 1 -38 -11
-69 -43 -35 -37 -44 -55 -54 -107 -15 -87 -16 -88 -32 -98 -25 -16 -29 -10
-29 39 -1 38 -3 44 -11 28 -7 -11 -9 -38 -5 -66 4 -29 2 -51 -4 -55 -5 -3 -10
-15 -10 -25 0 -10 -10 -27 -23 -37 -22 -17 -40 -46 -42 -68 0 -5 -16 -37 -35
-70 -37 -64 -54 -165 -31 -188 6 -6 11 -20 11 -32 0 -11 7 -29 15 -39 8 -11
15 -40 15 -65 0 -24 7 -83 15 -130 24 -140 65 -405 65 -419 0 -10 -12 -12 -47
-7 l-48 7 35 -34 c20 -18 45 -38 55 -44 11 -6 29 -30 41 -53 l21 -43 16 58 c9
31 14 60 12 65 -3 4 -1 19 5 34 5 14 12 61 15 103 6 92 8 109 29 187 8 33 18
92 21 130 8 100 9 106 28 145 10 19 21 61 24 93 5 45 11 62 30 77 13 10 31 16
38 14 14 -6 31 5 63 39 9 9 20 17 24 17 5 0 8 -8 9 -17 0 -11 3 -13 6 -5 2 6
11 12 19 12 8 0 13 6 11 13 -1 7 11 13 34 13 20 1 47 9 60 17 13 9 42 19 64
23 22 3 47 10 55 14 8 4 27 10 43 14 22 5 27 3 27 -13 0 -20 5 -21 48 -4 9 3
21 7 25 7 4 1 11 6 15 12 15 23 51 35 72 24 11 -6 20 -8 20 -4 0 3 6 2 13 -3
20 -15 218 -7 281 11 31 9 61 14 66 11 5 -3 11 -1 15 5 5 8 -18 15 -27 8 -2
-1 -14 4 -27 11 -14 8 -21 9 -17 2 4 -7 1 -9 -8 -5 -28 11 -6 48 24 39 70 -19
189 -14 159 7 -10 7 -8 8 9 5 14 -3 25 0 28 8 3 7 16 16 29 19 13 3 24 15 27
29 6 30 -12 46 -40 36 -12 -5 -22 -5 -22 0 0 5 9 11 21 14 12 3 18 10 14 16
-3 6 1 11 9 11 20 0 29 17 15 26 -8 5 -9 3 -4 -6 5 -9 4 -11 -4 -6 -6 4 -9 12
-5 17 3 5 10 7 15 3 6 -3 20 3 32 14 20 18 23 19 37 4 13 -14 12 -15 -3 -9
-11 4 -16 3 -12 -4 4 -5 1 -16 -5 -24 -14 -17 -5 -35 16 -35 10 0 7 -8 -11
-25 -14 -14 -25 -31 -25 -36 0 -16 -51 -62 -83 -77 -15 -6 -45 -12 -65 -12
-20 0 -44 -5 -52 -10 -12 -8 -9 -10 12 -10 15 0 30 -5 33 -10 7 -11 52 -3 72
12 7 6 25 3 48 -7 21 -8 48 -15 60 -15 34 0 117 -38 110 -50 -3 -5 3 -10 14
-10 25 0 48 -37 33 -52 -7 -7 -6 -18 5 -34 8 -13 12 -24 8 -24 -3 0 1 -7 9
-16 9 -8 21 -12 28 -8 9 6 9 3 -1 -9 -12 -15 -11 -17 3 -17 9 0 15 -5 13 -12
-1 -7 4 -12 12 -13 13 0 28 -26 30 -49 1 -4 -10 -5 -24 -2 -26 7 -34 -9 -17
-29 5 -6 3 -20 -3 -33 -8 -15 -15 -20 -20 -13 -17 28 -22 -5 -8 -62 32 -135
45 -216 48 -297 2 -47 4 -94 5 -105 0 -10 6 -26 13 -33 10 -12 13 -11 18 9 7
24 7 23 8 -3 1 -37 19 -45 26 -11 4 15 11 37 16 48 5 11 8 34 7 50 -1 30 19
263 26 302 3 11 5 76 6 144 2 112 0 130 -23 186 -14 34 -22 64 -19 67 3 3 0 6
-7 6 -7 0 -9 5 -5 12 4 6 -1 17 -11 24 -15 11 -16 16 -5 29 10 13 9 15 -9 15
-11 0 -21 5 -21 10 0 6 6 10 14 10 15 0 29 51 20 75 -4 9 -3 15 2 14 25 -4 26
3 4 18 -28 19 -50 25 -50 13 0 -4 -39 -8 -86 -8 -48 0 -89 -4 -93 -9 -8 -13
-81 -16 -81 -4 0 6 8 7 17 4 13 -5 15 -2 10 11 -5 14 -3 17 8 12 8 -3 15 -1
15 4 0 5 9 12 20 15 11 3 20 13 20 21 0 8 8 29 17 47 20 37 18 67 -5 85 -15
11 -14 12 1 12 15 0 37 -52 37 -92 0 -12 11 -6 40 21 39 37 52 64 28 59 -25
-4 -56 13 -53 30 1 9 -1 22 -5 27 -4 6 -10 22 -14 38 -6 25 -36 40 -36 17 0
-5 -4 -10 -10 -10 -5 0 -10 7 -10 15 0 8 7 15 15 15 15 0 22 30 8 30 -5 0 -19
23 -32 50 -14 27 -33 52 -42 55 -10 4 -21 15 -24 26 -4 10 -13 19 -21 19 -8 0
-14 5 -14 11 0 5 -5 7 -11 3 -6 -3 -8 -16 -5 -29 4 -16 -3 -32 -23 -56 l-30
-33 31 -13 c31 -13 31 -14 12 -32 -10 -10 -20 -14 -22 -10 -5 12 -32 11 -32
-1 0 -5 6 -10 13 -10 6 0 -10 -12 -37 -26 -27 -14 -56 -23 -65 -21 -13 4 -12
5 2 6 18 1 47 23 47 36 0 3 -13 -1 -29 -9 -38 -20 -160 -45 -167 -34 -3 4 3 8
13 8 10 1 29 8 43 16 17 11 19 13 5 9 -11 -4 -29 -9 -40 -11 -11 -2 -50 -14
-87 -27 -41 -15 -72 -21 -80 -15 -7 4 -24 6 -38 3 -14 -3 -31 -1 -38 4 -9 5 4
9 36 9 28 1 70 8 94 16 23 8 60 17 81 21 21 3 41 13 44 21 3 9 13 14 24 11 11
-3 17 -1 13 4 -6 10 -3 11 51 14 21 1 41 7 43 14 2 6 10 18 18 25 20 21 18 24
-21 32 -31 6 -50 24 -25 24 6 0 10 5 10 10 0 14 -28 12 -33 -2 -2 -8 -11 0
-20 17 -9 17 -17 26 -18 20 -1 -5 -4 4 -8 20 -5 22 -12 30 -26 28 -10 -1 -25
6 -32 15 -7 11 -12 12 -13 5 0 -7 -18 -22 -39 -32 -21 -11 -56 -40 -76 -63
-21 -24 -35 -38 -32 -32 7 13 -41 12 -62 0 -7 -5 -18 -1 -25 10 -8 10 -20 15
-30 11 -10 -4 -19 -1 -22 8 -4 8 -15 15 -26 15 -17 0 -18 3 -8 15 25 30 -10
15 -44 -20 -20 -19 -38 -35 -41 -35 -14 0 -1 23 30 51 36 33 37 43 7 44 -9 1
-27 2 -39 3 -13 1 -23 8 -23 16 0 23 -17 28 -32 10z m-47 -145 c-24 -23 -35
-21 -25 4 5 15 33 28 43 20 3 -2 -6 -13 -18 -24z m609 21 c0 -5 -5 -10 -11
-10 -5 0 -7 5 -4 10 3 6 8 10 11 10 2 0 4 -4 4 -10z m-180 -24 c0 -9 -39 -13
-51 -5 -10 6 -4 9 19 9 17 0 32 -2 32 -4z m56 -30 c5 -13 11 -13 47 0 36 13
43 13 56 -1 14 -13 12 -15 -19 -16 -25 0 -30 -2 -17 -8 17 -6 16 -8 -8 -21
-21 -11 -28 -12 -34 -1 -5 7 -10 11 -12 10 -9 -7 -138 25 -142 35 -3 7 19 12
59 14 49 2 66 -1 70 -12z m-266 -106 c8 -5 11 -10 5 -10 -5 -1 1 -6 15 -12 25
-11 25 -11 -10 -18 l-35 -6 28 -8 c15 -5 39 -6 53 -3 18 3 22 1 15 -6 -17 -17
-232 -15 -249 2 -11 11 -15 12 -22 1 -4 -7 -13 -9 -20 -5 -15 9 61 44 97 44
12 1 24 7 26 14 4 9 8 9 15 -2 8 -11 14 -11 33 3 27 19 29 19 49 6z m615 -20
c-8 -13 25 -21 45 -10 36 19 48 6 26 -29 -7 -10 -3 -12 15 -7 l24 7 -22 -20
c-13 -10 -23 -21 -23 -24 0 -3 10 -3 23 0 24 6 -49 -33 -127 -66 -57 -25 -67
-22 -34 11 13 13 22 27 20 31 -1 5 1 6 5 4 5 -3 16 1 26 8 37 27 -1 23 -56 -5
-31 -17 -58 -26 -61 -21 -7 11 -87 -7 -101 -23 -6 -8 -20 -9 -35 -5 -20 6 -21
7 -5 8 23 1 70 29 102 60 12 11 27 21 33 21 5 0 10 4 10 9 0 4 -12 6 -27 4
-18 -2 -9 4 25 20 29 13 50 25 48 28 -4 4 15 4 58 0 5 -1 2 -8 -5 -18 -12 -14
-12 -16 1 -11 8 3 15 14 14 26 0 12 4 18 13 15 7 -3 11 -9 8 -13z m138 3 c3
-5 -1 -21 -7 -38 -12 -29 -13 -29 -20 -7 -4 12 -11 22 -16 22 -5 0 -7 7 -4 15
6 15 39 21 47 8z m-640 -60 c-7 -2 -19 -2 -25 0 -7 3 -2 5 12 5 14 0 19 -2 13
-5z m45 -140 c-10 -2 -26 -2 -35 0 -10 3 -2 5 17 5 19 0 27 -2 18 -5z m152
-13 c8 -5 11 -10 6 -10 -13 0 72 -80 87 -80 6 0 4 -5 -6 -11 -11 -7 -23 -7
-30 -1 -7 5 -41 15 -76 22 -46 10 -59 15 -45 21 16 5 13 8 -16 17 l-35 10 30
2 30 2 -30 8 c-16 4 -23 8 -15 10 11 1 9 4 -5 10 -14 6 -5 9 35 9 30 0 62 -4
70 -9z m137 4 c-3 -3 -12 -4 -19 -1 -8 3 -5 6 6 6 11 1 17 -2 13 -5z m128 -75
c-4 -5 -18 -8 -33 -8 -24 2 -24 2 -4 6 12 2 22 9 22 14 0 6 5 7 10 4 6 -4 8
-11 5 -16z m80 -29 c3 -5 -1 -10 -9 -10 -9 0 -16 5 -16 10 0 6 4 10 9 10 6 0
13 -4 16 -10z m-205 -9 c0 -5 8 -12 18 -14 13 -4 14 -5 1 -6 -8 0 -24 6 -35
14 -17 13 -17 14 -1 15 9 0 17 -4 17 -9z m334 -22 c-6 -11 -24 -2 -24 11 0 5
7 7 15 4 8 -4 12 -10 9 -15z m71 1 c-5 -15 -3 -18 9 -14 9 3 16 1 16 -5 0 -6
-6 -11 -14 -11 -8 0 -22 -7 -30 -16 -15 -14 -16 -14 -16 0 0 12 -11 16 -42 17
-39 1 -40 2 -16 9 15 4 35 15 44 24 8 9 24 16 35 16 16 0 19 -5 14 -20z m-58
-56 c-3 -3 -12 -4 -19 -1 -8 3 -5 6 6 6 11 1 17 -2 13 -5z m70 -80 c-3 -3 -12
-4 -19 -1 -8 3 -5 6 6 6 11 1 17 -2 13 -5z m-42 -14 c3 -5 1 -10 -4 -10 -6 0
-11 5 -11 10 0 6 2 10 4 10 3 0 8 -4 11 -10z"/>
<path d="M2000 3869 c0 -5 -5 -7 -12 -3 -7 4 -8 3 -4 -5 5 -8 12 -9 19 -3 7 5
19 12 27 15 10 4 7 6 -7 6 -13 1 -23 -4 -23 -10z"/>
<path d="M2804 3859 c-3 -6 -2 -15 3 -20 5 -5 9 -1 10 11 2 22 -2 25 -13 9z"/>
<path d="M2668 4056 c-22 -16 -23 -26 -3 -26 8 0 19 9 25 20 12 23 3 25 -22 6z"/>
<path d="M1645 4010 c-3 -5 -2 -10 4 -10 5 0 13 5 16 10 3 6 2 10 -4 10 -5 0
-13 -4 -16 -10z"/>
<path d="M2905 3650 c-3 -6 1 -7 9 -4 18 7 21 14 7 14 -6 0 -13 -4 -16 -10z"/>
<path d="M3130 3600 c0 -5 7 -10 16 -10 8 0 12 5 9 10 -3 6 -10 10 -16 10 -5
0 -9 -4 -9 -10z"/>
<path d="M2578 3483 c7 -3 16 -2 19 1 4 3 -2 6 -13 5 -11 0 -14 -3 -6 -6z"/>
<path d="M2910 3406 c0 -2 7 -7 16 -10 8 -3 12 -2 9 4 -6 10 -25 14 -25 6z"/>
<path d="M2470 2845 c-52 -19 -70 -31 -88 -60 -22 -34 -23 -41 -12 -86 11 -46
13 -48 41 -42 28 5 41 -9 19 -22 -18 -11 -10 -25 14 -25 13 0 29 7 36 15 17
21 30 19 30 -4 0 -27 38 -51 81 -51 31 0 38 5 55 35 21 40 29 43 46 15 9 -13
24 -20 45 -20 42 0 42 12 0 44 -49 37 -85 48 -161 49 -69 0 -69 0 -47 18 24
20 81 25 139 13 17 -4 53 -26 79 -50 56 -52 73 -55 73 -14 0 17 -4 30 -10 30
-5 0 -10 7 -10 16 0 8 -19 24 -43 34 -60 27 -97 58 -90 75 3 10 -2 15 -16 15
-12 0 -20 5 -18 12 2 12 -34 26 -73 26 -14 0 -54 -10 -90 -23z"/>
<path d="M1815 2832 c-31 -6 -47 -24 -42 -48 3 -17 -4 -25 -33 -38 -20 -9 -40
-16 -44 -16 -4 0 -30 -21 -57 -47 -45 -43 -64 -83 -38 -83 6 0 9 -5 7 -12 -2
-6 9 -25 24 -42 24 -26 30 -29 38 -16 5 8 10 19 10 23 0 4 6 7 13 6 32 -4 40
1 27 16 -9 11 -10 19 -2 27 13 13 32 2 32 -20 0 -10 14 -23 31 -31 28 -12 36
-12 64 3 17 10 36 29 41 43 9 25 10 26 27 9 9 -10 15 -22 12 -27 -4 -5 12 -9
34 -9 30 0 41 4 41 15 0 11 12 15 45 15 25 0 45 5 45 10 0 14 -38 50 -53 50
-7 0 -26 14 -43 31 -16 17 -42 37 -57 45 -36 19 -26 34 24 34 31 0 39 4 39 18
0 34 -107 59 -185 44z m-20 -152 c-27 -4 -72 -19 -100 -34 l-50 -28 37 36 c36
34 41 36 100 35 l63 -2 -50 -7z"/>
<path d="M1628 2783 c7 -3 16 -2 19 1 4 3 -2 6 -13 5 -11 0 -14 -3 -6 -6z"/>
<path d="M3179 2502 c-27 -16 -76 -82 -60 -82 5 0 14 7 21 15 18 21 54 15 58
-10 9 -50 21 -33 17 24 -2 35 -5 64 -7 65 -2 2 -15 -4 -29 -12z"/>
<path d="M1177 2470 c-3 -26 1 -56 13 -87 18 -46 19 -47 28 -23 5 14 10 53 11
88 2 60 1 62 -22 62 -21 0 -25 -6 -30 -40z"/>
<path d="M1262 2435 c-11 -13 -9 -20 12 -42 19 -21 28 -25 37 -16 9 9 6 19
-10 42 -26 36 -22 34 -39 16z"/>
<path d="M1298 2343 c-30 -21 -41 -38 -54 -82 -24 -82 -22 -116 6 -141 27 -23
32 -24 48 -8 9 9 15 9 24 0 7 -7 19 -12 28 -12 12 0 15 -7 12 -28 -5 -36 20
-61 43 -42 17 14 20 46 5 55 -7 4 -8 26 -4 56 6 43 4 53 -16 74 -18 19 -21 30
-15 62 7 43 -8 94 -27 92 -7 -1 -30 -12 -50 -26z"/>
<path d="M3043 2349 c-9 -9 -8 -19 4 -42 13 -27 16 -28 25 -13 10 18 3 66 -10
66 -4 0 -13 -5 -19 -11z"/>
<path d="M2307 2137 c-54 -50 -70 -77 -47 -77 6 0 24 12 41 28 35 31 89 41 89
16 0 -8 5 -12 10 -9 6 4 8 16 4 27 -3 12 -1 24 6 28 14 8 -13 40 -34 40 -7 0
-38 -24 -69 -53z"/>
<path d="M2113 2163 c-19 -7 -16 -50 4 -61 10 -6 28 -6 47 0 48 16 54 27 27
49 -22 18 -52 23 -78 12z"/>
<path d="M2016 2135 c-13 -34 22 -105 51 -105 7 0 13 -4 13 -10 0 -15 46 -12
85 7 37 18 47 34 18 31 -27 -3 -129 48 -146 72 -13 18 -15 19 -21 5z"/>
<path d="M2400 1813 c-45 -13 -67 -13 -124 -4 -39 7 -73 8 -80 3 -15 -12 -143
-14 -151 -3 -6 11 -43 2 -111 -29 -47 -20 -48 -22 -29 -36 15 -12 33 -14 70
-10 28 4 147 11 265 16 283 13 340 19 340 36 0 7 -12 16 -27 20 -16 3 -38 10
-51 15 -28 11 -34 11 -102 -8z"/>
<path d="M2824 1587 c-84 -92 -108 -120 -124 -142 -70 -101 -170 -198 -234
-228 -45 -22 -65 -25 -149 -23 -67 1 -97 -3 -97 -10 0 -7 -10 -15 -22 -19 -13
-5 -32 -11 -43 -15 -17 -5 -14 -8 18 -20 39 -15 39 -14 40 -108 0 -35 -6 -58
-17 -70 -9 -10 -13 -22 -9 -25 3 -4 -1 -7 -11 -7 -10 0 -14 -5 -10 -11 3 -6 8
-28 9 -50 4 -47 -13 -64 -59 -56 -19 3 -36 2 -38 -3 -3 -10 -135 10 -155 23
-7 4 -35 11 -63 14 -28 3 -53 10 -56 14 -3 5 -14 9 -25 9 -10 0 -19 4 -19 9 0
5 -23 17 -50 26 -28 9 -47 21 -44 27 3 5 -3 12 -14 15 -13 3 -23 17 -28 37 -3
17 -11 34 -16 37 -15 10 -12 99 4 125 4 6 -7 28 -24 49 -28 33 -29 37 -10 31
26 -9 29 8 5 24 -17 11 -17 11 0 6 11 -4 17 0 17 11 0 12 -7 14 -30 10 -24 -5
-30 -3 -31 11 -4 66 4 64 -104 33 -112 -31 -203 -66 -255 -97 -23 -14 -149
-76 -383 -189 -51 -24 -114 -57 -142 -72 -27 -16 -90 -51 -140 -78 -49 -27
-115 -70 -145 -96 -57 -49 -169 -121 -272 -175 -106 -57 -98 -29 -98 -336 l0
-268 2300 0 2300 0 -1 153 c-1 147 -1 153 -27 193 -15 23 -49 79 -77 125 -53
87 -140 187 -190 219 -16 10 -52 24 -80 31 -70 17 -322 136 -370 175 -48 38
-255 139 -411 199 -62 24 -149 61 -195 83 -46 22 -113 52 -149 67 -36 15 -84
35 -106 45 -23 10 -59 21 -80 25 l-39 6 29 -23 c16 -13 47 -36 69 -53 73 -55
82 -74 82 -183 0 -82 -5 -112 -32 -193 -38 -116 -93 -229 -142 -288 -88 -108
-320 -237 -511 -286 -186 -47 -390 -45 -390 5 0 10 30 47 67 82 114 107 163
158 163 168 0 6 19 19 43 29 84 38 143 123 165 241 12 60 57 137 198 336 98
138 163 263 178 344 3 19 20 51 37 70 30 35 53 70 46 70 -3 0 -26 -24 -53 -53z
m-1479 -607 c3 -5 1 -10 -4 -10 -6 0 -11 5 -11 10 0 6 2 10 4 10 3 0 8 -4 11
-10z m45 -140 c16 0 32 5 35 11 5 6 12 3 21 -9 11 -16 12 -25 1 -49 -6 -15
-19 -28 -27 -28 -8 0 -14 -8 -14 -17 1 -10 -1 -18 -5 -18 -13 0 -31 24 -31 43
0 10 -4 16 -9 12 -5 -3 -14 10 -21 29 -8 26 -8 40 2 62 l13 29 3 -33 c3 -28 7
-32 32 -32z m100 -82 c0 -20 -16 -41 -28 -37 -6 3 -6 13 -1 27 9 23 29 30 29
10z"/>
<path d="M2160 1600 c0 -5 25 -10 56 -10 34 0 53 4 49 10 -3 6 -28 10 -56 10
-27 0 -49 -4 -49 -10z"/>
<path d="M1586 1302 c-3 -6 -1 -14 5 -17 15 -10 25 3 12 16 -7 7 -13 7 -17 1z"/>
<path d="M1798 1063 c7 -3 16 -2 19 1 4 3 -2 6 -13 5 -11 0 -14 -3 -6 -6z"/>
<path d="M1760 1029 c0 -5 5 -7 10 -4 6 3 10 8 10 11 0 2 -4 4 -10 4 -5 0 -10
-5 -10 -11z"/>
<path d="M1798 1033 c7 -3 16 -2 19 1 4 3 -2 6 -13 5 -11 0 -14 -3 -6 -6z"/>
<path d="M1760 976 c0 -9 5 -16 10 -16 6 0 10 4 10 9 0 6 -4 13 -10 16 -5 3
-10 -1 -10 -9z"/>
</g>
</svg>
